<?xml version="1.0" encoding="UTF-8" standalone="no"?>
<!-- Created with Inkscape (http://www.inkscape.org/) -->

<svg
   xmlns:dc="http://purl.org/dc/elements/1.1/"
   xmlns:cc="http://creativecommons.org/ns#"
   xmlns:rdf="http://www.w3.org/1999/02/22-rdf-syntax-ns#"
   xmlns:svg="http://www.w3.org/2000/svg"
   xmlns="http://www.w3.org/2000/svg"
   xmlns:sodipodi="http://sodipodi.sourceforge.net/DTD/sodipodi-0.dtd"
   xmlns:inkscape="http://www.inkscape.org/namespaces/inkscape"
   width="32"
   height="32"
   id="svg4459"
   version="1.1"
   inkscape:version="0.48.3.1 r9886"
   sodipodi:docname="trash.svg"
   inkscape:export-filename="trash.png"
   inkscape:export-xdpi="67.5"
   inkscape:export-ydpi="67.5">
  <defs
     id="defs4461" />
  <sodipodi:namedview
     id="base"
     pagecolor="#ffffff"
     bordercolor="#666666"
     borderopacity="1.0"
     inkscape:pageopacity="0.0"
     inkscape:pageshadow="2"
     inkscape:zoom="11.313708"
     inkscape:cx="4.75"
     inkscape:cy="24.75"
     inkscape:document-units="px"
     inkscape:current-layer="layer1"
     showgrid="false"
     inkscape:window-width="1920"
     inkscape:window-height="1032"
     inkscape:window-x="0"
     inkscape:window-y="27"
     inkscape:window-maximized="1" />
  <metadata
     id="metadata4464">
    <rdf:RDF>
      <cc:Work
         rdf:about="">
        <dc:format>image/svg+xml</dc:format>
        <dc:type
           rdf:resource="http://purl.org/dc/dcmitype/StillImage" />
        <dc:title></dc:title>
      </cc:Work>
    </rdf:RDF>
  </metadata>
  <g
     inkscape:label="Layer 1"
     inkscape:groupmode="layer"
     id="layer1"
     transform="translate(0,-1020.3622)">
    <g
       transform="matrix(0.82580645,0,0,0.82580645,-4.1806398,187.00499)"
       id="layer1-4"
       inkscape:label="Layer 1"
       style="opacity:0.75">
      <path
         style="color:#000000;fill:#ffffff;fill-opacity:1;fill-rule:nonzero;stroke:none;stroke-width:1;marker:none;visibility:visible;display:inline;overflow:visible;enable-background:accumulate"
         d="m 24.059076,1010.8842 c -2.331846,0 -4.487844,0.1783 -6.281739,0.4541 -0.597964,0.092 -1.156756,0.187 -1.665039,0.3028 -1.778988,0.4055 -2.98622,0.9462 -3.254394,1.5515 -0.03831,0.087 -0.03784,0.1759 -0.03784,0.2649 0,0.028 0.03414,0.049 0.03784,0.076 0.0023,0.017 -0.0037,0.059 0,0.076 0.0474,0.2141 0.231151,0.4092 0.491943,0.6055 -0.05372,-0.082 -0.09471,-0.1799 -0.113525,-0.2649 -0.0037,-0.017 0.0023,-0.059 0,-0.076 -0.0037,-0.027 -0.03784,-0.048 -0.03784,-0.076 0,-0.089 -4.68e-4,-0.1784 0.03784,-0.2649 0.268174,-0.6053 1.475406,-1.146 3.254394,-1.5515 0.508283,-0.1158 1.067075,-0.2108 1.665039,-0.3027 1.793895,-0.2758 3.949893,-0.4541 6.281739,-0.4541 4.978032,0 9.189824,0.7547 10.671386,1.7786 -0.92537,-1.2077 -5.501209,-2.1192 -11.049804,-2.1192 z m 13.963623,1.211 c 0.400691,0.4258 0.605468,0.8938 0.605468,1.3623 0,0.026 0.0013,0.05 0,0.076 l 0,3.3301 c 0,0.693 -0.479139,1.3402 -1.324463,1.93 l 0,24.5214 c 0,2.3451 -5.929716,4.2383 -13.244628,4.2383 -5.463078,0 -10.122482,-1.0617 -12.147217,-2.5732 1.758956,1.6815 6.682331,2.9138 12.525635,2.9138 7.314912,0 13.244628,-1.8932 13.244628,-4.2383 l 0,-24.5215 c 0.845323,-0.5898 1.324463,-1.2369 1.324463,-1.9299 l 0,-3.3301 c 0.0013,-0.026 0,-0.05 0,-0.076 0,-0.5974 -0.345639,-1.179 -0.983886,-1.7028 z m -25.202637,4.3518 c 6.68e-4,0.095 0,0.4032 0,0.4162 0,0.1777 0.07755,0.3625 0.227051,0.5298 0.09181,0.1027 0.195171,0.2062 0.340576,0.3027 -0.12567,-0.1556 -0.189209,-0.3292 -0.189209,-0.4919 0,-0.013 6.68e-4,-0.321 0,-0.4163 0.333585,0.1298 0.684634,0.2615 1.05957,0.3785 0.374865,0.1165 0.76046,0.2003 1.173096,0.3027 2.476548,0.6195 5.612908,0.9839 9.006348,0.9839 4.301937,0 8.158602,-0.5656 10.822753,-1.5137 0.0035,-0.027 0.03784,-0.049 0.03784,-0.076 l 0,-0.4162 c -2.668684,1.0382 -6.714429,1.665 -11.239013,1.665 -3.39344,0 -6.5298,-0.3644 -9.006348,-0.9839 -0.412636,-0.1024 -0.798231,-0.1862 -1.173096,-0.3027 -0.374936,-0.117 -0.725985,-0.2486 -1.05957,-0.3784 z m -2.30835,2.1191 c 0.09929,0.1044 0.219515,0.2017 0.340576,0.3027 l 0,-0.038 c -0.129388,-0.089 -0.228351,-0.1733 -0.340576,-0.2649 z m 3.292237,1.5894 0.03784,23.1591 c 0,0.2591 0.191514,0.4882 0.529786,0.719 -0.09797,-0.1296 -0.151368,-0.2416 -0.151368,-0.3784 l -0.03784,-23.1592 c 0.497933,0.1579 1.0609,0.2827 1.627197,0.4163 l 0,-0.2271 c -0.715566,-0.1576 -1.390617,-0.3347 -2.005615,-0.5297 z m 20.510254,0 c -0.593322,0.1882 -1.242748,0.3763 -1.929932,0.5297 l 0,20.813 c 0.0062,0.4379 -0.394565,0.8704 -0.83252,0.8704 -0.09661,0 -0.175873,-0.038 -0.264892,-0.076 0.154972,0.2296 0.372664,0.4163 0.64331,0.4163 0.437955,0 0.83872,-0.4325 0.83252,-0.8704 l 0,-20.813 c 0.551565,-0.1231 1.058085,-0.2663 1.551514,-0.4162 l 0,-0.4541 z m -16.877442,0.8325 0,20.5102 c 0.0062,0.4379 -0.356723,0.8704 -0.794678,0.8704 -0.09661,0 -0.175873,-0.038 -0.264892,-0.076 0.154972,0.2296 0.372663,0.4163 0.64331,0.4163 0.437955,0 0.800878,-0.4325 0.794678,-0.8704 l 0,-20.5102 c 0.548247,0.09 1.1201,0.1631 1.702881,0.227 l 0,-0.3027 c -0.724797,-0.076 -1.411728,-0.1552 -2.081299,-0.2649 z m 13.282471,0 c -0.669477,0.1105 -1.356245,0.1879 -2.081299,0.2649 l 0,20.813 c 0.0062,0.4379 -0.394565,0.8325 -0.83252,0.8325 -0.109488,0 -0.203672,-0.032 -0.302734,-0.076 0.152281,0.2342 0.398554,0.4163 0.681152,0.4163 0.437955,0 0.83872,-0.3947 0.83252,-0.8326 l 0,-20.8129 c 0.593676,-0.063 1.149016,-0.1456 1.702881,-0.2271 l 0,-0.3784 z m -9.536133,0.4541 0,20.6238 c 0.0062,0.4379 -0.394564,0.8325 -0.83252,0.8325 -0.109488,0 -0.203672,-0.032 -0.302734,-0.076 0.152281,0.2342 0.398554,0.4163 0.681152,0.4163 0.437955,0 0.83872,-0.3947 0.83252,-0.8326 l 0,-20.6237 c 0.547982,0.035 1.128312,0.034 1.702881,0.038 l 0,-0.3406 c -0.699334,-0.012 -1.411592,0.01 -2.081299,-0.038 z m 5.789795,0 c -0.656945,0.038 -1.357772,0.025 -2.043457,0.038 l 0,20.813 c 0.0062,0.4379 -0.394577,0.8325 -0.83252,0.8325 -0.109485,0 -0.203673,-0.032 -0.302734,-0.076 0.152283,0.2342 0.398562,0.4162 0.681152,0.4162 0.437943,0 0.838701,-0.3946 0.83252,-0.8325 l 0,-20.813 c 0.55875,-0.011 1.118118,-0.02 1.665039,-0.038 l 0,-0.3406 z"
         id="path3811-0"
         inkscape:connector-curvature="0" />
      <path
         style="color:#000000;fill:#000000;fill-opacity:1;fill-rule:nonzero;stroke:none;stroke-width:1;marker:none;visibility:visible;display:inline;overflow:visible;enable-background:accumulate"
         d="m 24.437493,1009.1435 c -8.043707,0 -14.569091,2.0758 -14.569091,4.6545 0,0.026 -0.0013,0.05 0,0.076 l 0,3.3301 c 0,0.5871 0.365746,1.1489 0.983886,1.665 -0.124369,-0.2444 -0.22705,-0.5007 -0.22705,-0.7568 l 0,-3.3301 c -0.0013,-0.026 0,-0.05 0,-0.076 0,-2.5787 6.525384,-4.6545 14.569091,-4.6545 6.199202,0 11.481694,1.2436 13.585205,2.9895 -1.129505,-2.2161 -7.102704,-3.8977 -14.342041,-3.8977 z m 11.239014,4.6167 c 6.82e-4,0.012 0,0.026 0,0.038 0,0.026 0.0032,0.05 0,0.076 -0.176964,1.386 -5.132866,2.4976 -11.239014,2.4976 -4.834058,0 -8.897499,-0.6922 -10.482177,-1.6651 0,0.028 0.03414,0.049 0.03784,0.076 0.0023,0.017 -0.0037,0.059 0,0.076 0.301067,1.3596 5.177237,2.4219 11.201171,2.4219 6.106148,0 11.06205,-1.1116 11.239014,-2.4976 0.0032,-0.026 0,-0.05 0,-0.076 0,-0.3292 -0.265946,-0.6567 -0.756836,-0.946 z m 0.756836,3.9355 c -0.548381,0.2134 -1.159525,0.3909 -1.816406,0.5677 -0.866625,0.4257 -2.214266,0.7993 -3.897705,1.0595 -1.793434,0.2774 -3.949893,0.4541 -6.281739,0.4541 -2.331845,0 -4.488304,-0.1767 -6.281738,-0.4541 -0.597964,-0.092 -1.156756,-0.1869 -1.665039,-0.3027 -0.508118,-0.1164 -0.958815,-0.2415 -1.362305,-0.3784 -0.463243,-0.1565 -0.865026,-0.3159 -1.173095,-0.492 0.0095,0.1668 0.08742,0.3357 0.22705,0.492 0.299008,0.3346 0.895591,0.6355 1.702881,0.9082 0.40349,0.1369 0.854187,0.262 1.362305,0.3784 0.508283,0.1158 1.067075,0.2107 1.665039,0.3027 1.793434,0.2774 3.949893,0.4541 6.281738,0.4541 2.331846,0 4.488305,-0.1767 6.281739,-0.4541 1.793432,-0.2773 3.235129,-0.6734 4.086914,-1.1352 0.284052,-0.1535 0.493807,-0.2868 0.64331,-0.4541 0.149501,-0.1673 0.227051,-0.3521 0.227051,-0.5298 l 0,-0.4163 z m -25.202637,1.7029 -0.03784,24.2566 c 0,0.5415 0.331882,1.076 0.908203,1.5515 -0.09855,-0.2087 -0.151368,-0.4256 -0.151368,-0.6433 l 0.03784,-24.4836 c -0.317995,-0.2179 -0.545634,-0.4466 -0.756836,-0.6812 z m 24.21875,2.0056 c -0.234189,0.074 -0.506293,0.1549 -0.756836,0.2271 l -0.03784,22.0239 c 0,1.2931 -4.562431,2.3084 -10.217286,2.3084 -4.268328,0 -7.929146,-0.5604 -9.460449,-1.4002 0,1.2931 4.56243,2.3084 10.217285,2.3084 5.654855,0 10.217286,-1.0153 10.217286,-2.3084 l 0.03784,-23.1592 z m -19.261474,0.3406 0,20.094 c -0.0058,0.4089 0.353972,0.7808 0.756836,0.8325 l 0,-20.7373 c -0.269082,-0.059 -0.500252,-0.1245 -0.756836,-0.1892 z m 15.666504,0.492 c -0.24414,0.04 -0.50708,0.08 -0.756836,0.1135 l 0,19.4885 c -0.0058,0.4089 0.353971,0.7808 0.756836,0.8325 l 0,-20.4345 z m -11.958008,0.1513 0,20.0183 c -0.0058,0.409 0.353973,0.7474 0.756836,0.7947 l 0,-20.6994 c -0.264313,-0.028 -0.5016,-0.084 -0.756836,-0.1136 z m 7.454834,0.3028 0,19.7155 c -0.0058,0.409 0.353973,0.7474 0.756836,0.7947 l 0,-20.5102 c -0.24323,0.014 -0.504571,0 -0.756836,0 z m -3.708496,0.038 0,19.9048 c -0.0058,0.4089 0.353981,0.7473 0.756836,0.7947 l 0,-20.6995 c -0.25422,0 -0.501866,0 -0.756836,0 z"
         id="path5185"
         inkscape:connector-curvature="0" />
    </g>
  </g>
</svg>
