<?xml version="1.0" encoding="UTF-8" standalone="no"?>
<!-- Created with Inkscape (http://www.inkscape.org/) -->

<svg
   xmlns:dc="http://purl.org/dc/elements/1.1/"
   xmlns:cc="http://creativecommons.org/ns#"
   xmlns:rdf="http://www.w3.org/1999/02/22-rdf-syntax-ns#"
   xmlns:svg="http://www.w3.org/2000/svg"
   xmlns="http://www.w3.org/2000/svg"
   xmlns:sodipodi="http://sodipodi.sourceforge.net/DTD/sodipodi-0.dtd"
   xmlns:inkscape="http://www.inkscape.org/namespaces/inkscape"
   width="32"
   height="32"
   id="svg4459"
   version="1.1"
   inkscape:version="0.48.3.1 r9886"
   sodipodi:docname="trash.svg"
   inkscape:export-filename="trash.png"
   inkscape:export-xdpi="90"
   inkscape:export-ydpi="90">
  <defs
     id="defs4461" />
  <sodipodi:namedview
     id="base"
     pagecolor="#ffffff"
     bordercolor="#666666"
     borderopacity="1.0"
     inkscape:pageopacity="0.0"
     inkscape:pageshadow="2"
     inkscape:zoom="11.313708"
     inkscape:cx="23.911612"
     inkscape:cy="24"
     inkscape:document-units="px"
     inkscape:current-layer="layer1"
     showgrid="false"
     inkscape:window-width="1920"
     inkscape:window-height="1032"
     inkscape:window-x="0"
     inkscape:window-y="27"
     inkscape:window-maximized="1" />
  <metadata
     id="metadata4464">
    <rdf:RDF>
      <cc:Work
         rdf:about="">
        <dc:format>image/svg+xml</dc:format>
        <dc:type
           rdf:resource="http://purl.org/dc/dcmitype/StillImage" />
        <dc:title></dc:title>
      </cc:Work>
    </rdf:RDF>
  </metadata>
  <g
     inkscape:label="Layer 1"
     inkscape:groupmode="layer"
     id="layer1"
     transform="translate(0,-1020.3622)">
    <g
       id="g5309"
       transform="translate(-5.5883679,4.8131)">
      <path
         inkscape:connector-curvature="0"
         id="path3811"
         d="m 21.588361,1015.5492 c -6.642632,0 -12.0259616,1.7414 -12.0259616,3.871 0,0.021 -0.00107,0.03 0,0.052 l 0,2.7356 c 0,0.2414 0.070583,0.4949 0.2064542,0.7225 -0.049219,-0.1387 -0.07742,-0.2694 -0.07742,-0.4129 l 0,-2.7355 c -0.00107,-0.022 0,-0.03 0,-0.052 0,-2.1296 5.3833294,-3.871 12.0259614,-3.871 5.748807,0 10.552902,1.2879 11.742087,3.0194 -0.833473,-1.8709 -5.811841,-3.3291 -11.871121,-3.3291 z m 9.264636,3.7936 c 0.0047,0.028 0.02581,0.049 0.02581,0.077 0,0.021 0.0026,0.03 0,0.052 -0.146139,1.1445 -4.247881,2.0646 -9.290442,2.0646 -4.581207,0 -8.370611,-0.7586 -9.135602,-1.7549 0.0019,0.013 -0.0031,0.038 0,0.052 0.248627,1.1228 4.289967,2.013 9.264636,2.013 5.042561,0 9.144302,-0.9201 9.290442,-2.0646 0.0026,-0.022 0,-0.03 0,-0.052 0,-0.1295 -0.05807,-0.2637 -0.15484,-0.3871 z m 0.15484,2.8387 c -0.03905,0.015 -0.08927,0.011 -0.129034,0.026 0,0.01 3.64e-4,0.018 0,0.026 -0.05449,1.1633 -4.189283,2.0903 -9.290442,2.0903 -4.538181,0 -8.298608,-0.7217 -9.109795,-1.7032 0.247073,1.1228 4.26416,2.0129 9.238829,2.0129 5.135141,0 9.290442,-0.9419 9.290442,-2.1162 l 0,-0.3355 z m -20.335746,1.8323 0,20.0261 c 0,0.2243 0.05557,0.4583 0.180648,0.671 -0.03718,-0.1179 -0.05161,-0.2403 -0.05161,-0.3613 l 0,-20.2325 c -0.04793,-0.033 -0.08388,-0.069 -0.129034,-0.1033 z m 19.535736,1.2129 c -0.04278,0.014 -0.08558,0.038 -0.129034,0.052 l -0.02581,18.7615 c 0,1.0679 -3.79475,1.9355 -8.464625,1.9355 -4.086141,0 -7.498732,-0.667 -8.283978,-1.5484 0.19685,1.0278 3.869796,1.8581 8.413012,1.8581 4.669875,0 8.464625,-0.8677 8.464625,-1.9355 l 0.02581,-19.1229 z m -15.432457,0.4388 0,16.9292 c -0.0023,0.1612 0.05425,0.3154 0.154841,0.4387 -0.0088,-0.044 -0.02645,-0.084 -0.02581,-0.129 l 0,-17.2131 c -0.04477,-0.01 -0.08468,-0.016 -0.129034,-0.026 z m 12.43887,0.258 c -0.04167,0.01 -0.08711,0.019 -0.129034,0.026 l 0,16.6454 c -0.0021,0.1507 0.06049,0.2938 0.154841,0.4129 -0.0062,-0.036 -0.02632,-0.067 -0.02581,-0.1032 l 0,-16.9809 z m -9.367863,0.2065 0,16.9292 c -0.0021,0.1507 0.06049,0.2938 0.154841,0.4129 -0.0062,-0.036 -0.02632,-0.067 -0.02581,-0.1032 l 0,-17.2131 c -0.04509,0 -0.08421,-0.021 -0.129034,-0.026 z m 6.167822,0.1548 0,16.7744 c -0.0023,0.1612 0.05425,0.3154 0.15484,0.4387 -0.0088,-0.044 -0.02645,-0.084 -0.02581,-0.129 l 0,-17.0841 c -0.0416,0 -0.0871,0 -0.129034,0 z m -3.071008,0.052 0,16.9035 c -0.0023,0.1612 0.05425,0.3153 0.154841,0.4387 -0.0088,-0.044 -0.02645,-0.084 -0.02581,-0.129 l 0,-17.2132 c -0.04354,-7e-4 -0.08548,7e-4 -0.129034,0 z"
         style="opacity:0.5;color:#000000;fill:#000000;fill-opacity:1;fill-rule:nonzero;stroke:none;stroke-width:1;marker:none;visibility:visible;display:inline;overflow:visible;enable-background:accumulate" />
      <path
         inkscape:connector-curvature="0"
         id="path5280"
         d="m 21.3561,1017.1492 c -1.925678,0 -3.705735,0.1336 -5.187164,0.3613 -0.49381,0.076 -0.948011,0.1625 -1.367759,0.2581 -1.46912,0.3348 -2.462443,0.7904 -2.683906,1.2903 -0.03167,0.072 -0.02581,0.1587 -0.02581,0.2323 0,0.023 -0.0031,0.029 0,0.051 0.0019,0.013 -0.0031,0.037 0,0.051 0.05225,0.236 0.284466,0.4359 0.64517,0.6452 -0.222405,-0.1651 -0.373113,-0.3365 -0.412909,-0.5162 -0.0031,-0.014 0.0019,-0.039 0,-0.051 -0.0031,-0.022 0,-0.028 0,-0.051 0,-0.073 -0.0059,-0.1608 0.02581,-0.2322 0.221463,-0.5 1.214786,-0.9556 2.683906,-1.2903 0.419748,-0.096 0.87395,-0.1822 1.367759,-0.2581 1.481429,-0.2278 3.261486,-0.3613 5.187164,-0.3613 3.851356,0 7.132657,0.5485 8.542046,1.3161 -1.255227,-0.838 -4.700758,-1.4452 -8.774307,-1.4452 z m 11.096917,0.6452 c 0.589488,0.4565 0.929045,0.9732 0.929045,1.4968 0,0.021 0.0011,0.03 0,0.051 l 0,2.7355 c 0,0.566 -0.40066,1.0911 -1.083885,1.5742 l 0,20.2584 c 0,1.9366 -4.901298,3.5097 -10.942077,3.5097 -3.775487,0 -7.098887,-0.6147 -9.058181,-1.5484 1.919267,1.0025 5.351037,1.6774 9.290442,1.6774 6.040779,0 10.942077,-1.5731 10.942077,-3.5097 l 0,-20.2583 c 0.683225,-0.4832 1.083885,-1.0083 1.083885,-1.5743 l 0,-2.7355 c 0.0011,-0.022 0,-0.031 0,-0.051 0,-0.585 -0.434267,-1.1274 -1.161306,-1.6258 z m -20.155098,28.0778 c -0.19593,-0.093 -0.374139,-0.2102 -0.541943,-0.3097 0.163139,0.109 0.345892,0.2072 0.541943,0.3097 z m -0.206455,-24.1294 c 5.52e-4,0.078 0,0.3247 0,0.3356 0,0.2751 0.231708,0.5336 0.64517,0.7742 -0.269763,-0.1992 -0.412909,-0.4251 -0.412909,-0.6452 0,-0.011 5.52e-4,-0.2569 0,-0.3355 2.203846,0.8573 5.528156,1.3936 9.264636,1.3936 3.61673,0 6.854603,-0.5065 9.058181,-1.3162 l 0,-0.2065 c -2.203845,0.8574 -5.553962,1.3936 -9.290442,1.3936 -3.73648,0 -7.06079,-0.5362 -9.264636,-1.3936 z m 17.755068,3.0452 c -0.499637,0.1588 -1.045473,0.3357 -1.625827,0.4646 l 0,17.2131 c 0.0051,0.3616 -0.309306,0.6968 -0.670977,0.6968 -0.09042,0 -0.175391,-0.04 -0.258068,-0.078 0.129627,0.1289 0.309494,0.2065 0.490329,0.2065 0.361671,0 0.676097,-0.3352 0.670977,-0.6968 l 0,-17.2131 c 0.495844,-0.1101 0.955401,-0.2482 1.393566,-0.3872 l 0,-0.2064 z m -16.929251,0.026 0,19.097 c 0,0.23 0.194945,0.4404 0.516136,0.6452 -0.190229,-0.1615 -0.283875,-0.341 -0.283875,-0.5162 l 0,-19.097 c 0.432345,0.1358 0.900618,0.2711 1.393567,0.3872 l 0,-0.078 c -0.579826,-0.1273 -1.125584,-0.2816 -1.625828,-0.4386 z m 2.993587,0.671 0,16.9809 c 0.0051,0.3616 -0.335112,0.6967 -0.696783,0.6967 -0.09042,0 -0.177811,-0.041 -0.258068,-0.078 0.123176,0.1289 0.309493,0.2064 0.490329,0.2064 0.361671,0 0.701904,-0.3352 0.696783,-0.6968 l 0,-16.9808 c 0.471605,0.077 0.966369,0.1485 1.470987,0.2064 l 0,-0.1032 c -0.590177,-0.062 -1.157471,-0.1431 -1.703248,-0.2322 z m 10.942077,0 c -0.545392,0.09 -1.113035,0.1695 -1.703248,0.2322 l 0,17.2132 c 0.0051,0.3616 -0.335112,0.6967 -0.696783,0.6967 -0.09042,0 -0.177811,-0.04 -0.258068,-0.078 0.123176,0.1289 0.309494,0.2065 0.490329,0.2065 0.361671,0 0.701903,-0.3352 0.696783,-0.6969 l 0,-17.213 c 0.510001,-0.055 0.994484,-0.1313 1.470987,-0.2065 l 0,-0.1548 z m -7.871069,0.3613 0,17.0841 c 0.0051,0.3616 -0.309306,0.6967 -0.670977,0.6967 -0.09042,0 -0.175391,-0.04 -0.258068,-0.078 0.129627,0.1289 0.309494,0.2065 0.490329,0.2065 0.361671,0 0.676097,-0.3352 0.670977,-0.6969 l 0,-17.0841 c 0.483839,0.031 0.991152,0.044 1.496793,0.051 l 0,-0.1289 c -0.583923,-0.01 -1.170214,-0.016 -1.729054,-0.051 z m 4.800062,0 c -0.549682,0.035 -1.129014,0.041 -1.703248,0.051 l 0,17.2131 c 0.0051,0.3616 -0.335122,0.6968 -0.696783,0.6968 -0.09042,0 -0.177811,-0.041 -0.258068,-0.078 0.123176,0.129 0.309499,0.2064 0.490329,0.2064 0.361661,0 0.701887,-0.3351 0.696783,-0.6967 l 0,-17.2132 c 0.496001,-0.01 0.989771,-0.027 1.470987,-0.051 l 0,-0.129 z"
         style="opacity:0.7;color:#000000;fill:#ffffff;fill-opacity:1;fill-rule:nonzero;stroke:none;stroke-width:1;marker:none;visibility:visible;display:inline;overflow:visible;enable-background:accumulate" />
    </g>
  </g>
</svg>
